<?xml version="1.0" encoding="UTF-8" standalone="no"?>
<!DOCTYPE svg PUBLIC "-//W3C//DTD SVG 1.1//EN"
 "http://www.w3.org/Graphics/SVG/1.1/DTD/svg11.dtd">
<!-- Generated by graphviz version 2.38.0 (20140413.2041)
 -->
<!-- Title: processflow Pages: 1 -->
<svg width="193pt" height="561pt"
 viewBox="0.00 0.00 193.00 561.39" xmlns="http://www.w3.org/2000/svg" xmlns:xlink="http://www.w3.org/1999/xlink">
<g id="graph0" class="graph" transform="scale(1 1) rotate(0) translate(4 557.39)">
<title>processflow</title>
<polygon fill="white" stroke="none" points="-4,4 -4,-557.39 189,-557.39 189,4 -4,4"/>
<!-- Start -->
<g id="node1" class="node"><title>Start</title>
<ellipse fill="none" stroke="black" cx="92.5" cy="-535.39" rx="27.8951" ry="18"/>
<text text-anchor="middle" x="92.5" y="-531.69" font-family="Times New Roman,serif" font-size="14.00">Start</text>
</g>
<!-- F1 -->
<g id="node2" class="node"><title>F1</title>
<polygon fill="none" stroke="black" points="185,-481.39 0,-481.39 0,-445.39 185,-445.39 185,-481.39"/>
<text text-anchor="middle" x="92.5" y="-459.69" font-family="Times New Roman,serif" font-size="14.00">1.Produce a dependency table</text>
</g>
<!-- Start&#45;&gt;F1 -->
<g id="edge1" class="edge"><title>Start&#45;&gt;F1</title>
<path fill="none" stroke="black" d="M92.5,-517.086C92.5,-509.372 92.5,-500.102 92.5,-491.502"/>
<polygon fill="black" stroke="black" points="96.0001,-491.494 92.5,-481.494 89.0001,-491.494 96.0001,-491.494"/>
</g>
<!-- deptbl -->
<g id="node3" class="node"><title>deptbl</title>
<polygon fill="none" stroke="black" points="119.5,-409.39 77.5,-409.39 77.5,-413.39 65.5,-413.39 65.5,-373.39 119.5,-373.39 119.5,-409.39"/>
<polyline fill="none" stroke="black" points="65.5,-409.39 77.5,-409.39 "/>
<text text-anchor="middle" x="92.5" y="-387.69" font-family="Times New Roman,serif" font-size="14.00">deptbl</text>
</g>
<!-- F1&#45;&gt;deptbl -->
<g id="edge2" class="edge"><title>F1&#45;&gt;deptbl</title>
<path fill="none" stroke="black" d="M92.5,-445.086C92.5,-437.372 92.5,-428.102 92.5,-419.502"/>
<polygon fill="black" stroke="black" points="96.0001,-419.494 92.5,-409.494 89.0001,-419.494 96.0001,-419.494"/>
</g>
<!-- F2 -->
<g id="node4" class="node"><title>F2</title>
<polygon fill="none" stroke="black" points="175.5,-337.39 9.5,-337.39 9.5,-301.39 175.5,-301.39 175.5,-337.39"/>
<text text-anchor="middle" x="92.5" y="-315.69" font-family="Times New Roman,serif" font-size="14.00">2. Produce a GraphViz file</text>
</g>
<!-- deptbl&#45;&gt;F2 -->
<g id="edge3" class="edge"><title>deptbl&#45;&gt;F2</title>
<path fill="none" stroke="black" d="M92.5,-373.086C92.5,-365.372 92.5,-356.102 92.5,-347.502"/>
<polygon fill="black" stroke="black" points="96.0001,-347.494 92.5,-337.494 89.0001,-347.494 96.0001,-347.494"/>
</g>
<!-- gv -->
<g id="node5" class="node"><title>gv</title>
<ellipse fill="none" stroke="black" cx="92.5" cy="-230.293" rx="35.194" ry="35.194"/>
<text text-anchor="middle" x="92.5" y="-226.593" font-family="Times New Roman,serif" font-size="14.00">text.gv</text>
</g>
<!-- F2&#45;&gt;gv -->
<g id="edge4" class="edge"><title>F2&#45;&gt;gv</title>
<path fill="none" stroke="black" d="M92.5,-301.182C92.5,-293.762 92.5,-284.708 92.5,-275.609"/>
<polygon fill="black" stroke="black" points="96.0001,-275.401 92.5,-265.401 89.0001,-275.401 96.0001,-275.401"/>
</g>
<!-- F3 -->
<g id="node6" class="node"><title>F3</title>
<polygon fill="none" stroke="black" points="162.5,-159.196 22.5,-159.196 22.5,-123.196 162.5,-123.196 162.5,-159.196"/>
<text text-anchor="middle" x="92.5" y="-137.496" font-family="Times New Roman,serif" font-size="14.00">3. Render the diagram</text>
</g>
<!-- gv&#45;&gt;F3 -->
<g id="edge5" class="edge"><title>gv&#45;&gt;F3</title>
<path fill="none" stroke="black" d="M92.5,-194.87C92.5,-186.501 92.5,-177.662 92.5,-169.664"/>
<polygon fill="black" stroke="black" points="96.0001,-169.403 92.5,-159.404 89.0001,-169.404 96.0001,-169.403"/>
</g>
<!-- svg -->
<g id="node7" class="node"><title>svg</title>
<ellipse fill="none" stroke="black" cx="92.5" cy="-43.598" rx="39.6872" ry="39.6872"/>
<ellipse fill="none" stroke="black" cx="92.5" cy="-43.598" rx="43.6962" ry="43.6962"/>
<text text-anchor="middle" x="92.5" y="-58.798" font-family="Times New Roman,serif" font-size="11.00">.svg</text>
<text text-anchor="middle" x="92.5" y="-46.798" font-family="Times New Roman,serif" font-size="11.00">.png</text>
<text text-anchor="middle" x="92.5" y="-34.798" font-family="Times New Roman,serif" font-size="11.00">.jpg</text>
<text text-anchor="middle" x="92.5" y="-22.798" font-family="Times New Roman,serif" font-size="11.00">etc</text>
</g>
<!-- F3&#45;&gt;svg -->
<g id="edge6" class="edge"><title>F3&#45;&gt;svg</title>
<path fill="none" stroke="black" d="M92.5,-123.105C92.5,-115.769 92.5,-106.76 92.5,-97.492"/>
<polygon fill="black" stroke="black" points="96.0001,-97.401 92.5,-87.401 89.0001,-97.401 96.0001,-97.401"/>
</g>
</g>
</svg>
