<?xml version="1.0" encoding="UTF-8" standalone="no"?>
<!DOCTYPE svg PUBLIC "-//W3C//DTD SVG 1.1//EN"
 "http://www.w3.org/Graphics/SVG/1.1/DTD/svg11.dtd">
<!-- Generated by graphviz version 2.38.0 (20140413.2041)
 -->
<!-- Title: processflow Pages: 1 -->
<svg width="330pt" height="568pt"
 viewBox="0.00 0.00 330.44 567.82" xmlns="http://www.w3.org/2000/svg" xmlns:xlink="http://www.w3.org/1999/xlink">
<g id="graph0" class="graph" transform="scale(1 1) rotate(0) translate(4 563.816)">
<title>processflow</title>
<polygon fill="white" stroke="none" points="-4,4 -4,-563.816 326.441,-563.816 326.441,4 -4,4"/>
<!-- Start -->
<g id="node1" class="node"><title>Start</title>
<ellipse fill="none" stroke="black" cx="161.22" cy="-541.816" rx="27.8951" ry="18"/>
<text text-anchor="middle" x="161.22" y="-538.116" font-family="Times New Roman,serif" font-size="14.00">Start</text>
</g>
<!-- F1 -->
<g id="node2" class="node"><title>F1</title>
<ellipse fill="none" stroke="black" stroke-width="2" cx="161.22" cy="-466.603" rx="161.441" ry="21.4286"/>
<g id="a_node2_0"><a xlink:href="https://github.com/MichaelSScott/GraphDoc/wiki/Produce-a-Dependency-Table" xlink:title="Open Hierarchical view">
<text text-anchor="start" x="57.2203" y="-463.803" font-family="Times New Roman,serif" font-weight="bold" font-size="16.00"> </text>
<text text-anchor="start" x="61.2203" y="-463.803" font-family="Times New Roman,serif" font-weight="bold" font-size="16.00" fill="#0000ff">1. Produce a dependency table</text>
</a>
</g>
</g>
<!-- Start&#45;&gt;F1 -->
<g id="edge1" class="edge"><title>Start&#45;&gt;F1</title>
<path fill="none" stroke="black" d="M161.22,-523.466C161.22,-515.89 161.22,-506.776 161.22,-498.128"/>
<polygon fill="black" stroke="black" points="164.72,-497.945 161.22,-487.945 157.72,-497.945 164.72,-497.945"/>
</g>
<!-- deptbl -->
<g id="node3" class="node"><title>deptbl</title>
<polygon fill="none" stroke="black" points="188.22,-409.39 146.22,-409.39 146.22,-413.39 134.22,-413.39 134.22,-373.39 188.22,-373.39 188.22,-409.39"/>
<polyline fill="none" stroke="black" points="134.22,-409.39 146.22,-409.39 "/>
<text text-anchor="middle" x="161.22" y="-387.69" font-family="Times New Roman,serif" font-size="14.00">deptbl</text>
</g>
<!-- F1&#45;&gt;deptbl -->
<g id="edge2" class="edge"><title>F1&#45;&gt;deptbl</title>
<path fill="none" stroke="black" d="M161.22,-445.209C161.22,-437.355 161.22,-428.253 161.22,-419.841"/>
<polygon fill="black" stroke="black" points="164.72,-419.7 161.22,-409.7 157.72,-419.7 164.72,-419.7"/>
</g>
<!-- F2 -->
<g id="node4" class="node"><title>F2</title>
<polygon fill="none" stroke="black" points="244.22,-337.39 78.2203,-337.39 78.2203,-301.39 244.22,-301.39 244.22,-337.39"/>
<text text-anchor="middle" x="161.22" y="-315.69" font-family="Times New Roman,serif" font-size="14.00">2. Produce a GraphViz file</text>
</g>
<!-- deptbl&#45;&gt;F2 -->
<g id="edge3" class="edge"><title>deptbl&#45;&gt;F2</title>
<path fill="none" stroke="black" d="M161.22,-373.086C161.22,-365.372 161.22,-356.102 161.22,-347.502"/>
<polygon fill="black" stroke="black" points="164.72,-347.494 161.22,-337.494 157.72,-347.494 164.72,-347.494"/>
</g>
<!-- gv -->
<g id="node5" class="node"><title>gv</title>
<ellipse fill="none" stroke="black" cx="161.22" cy="-230.293" rx="35.194" ry="35.194"/>
<text text-anchor="middle" x="161.22" y="-226.593" font-family="Times New Roman,serif" font-size="14.00">text.gv</text>
</g>
<!-- F2&#45;&gt;gv -->
<g id="edge4" class="edge"><title>F2&#45;&gt;gv</title>
<path fill="none" stroke="black" d="M161.22,-301.182C161.22,-293.762 161.22,-284.708 161.22,-275.609"/>
<polygon fill="black" stroke="black" points="164.72,-275.401 161.22,-265.401 157.72,-275.401 164.72,-275.401"/>
</g>
<!-- F3 -->
<g id="node6" class="node"><title>F3</title>
<polygon fill="none" stroke="black" points="231.22,-159.196 91.2203,-159.196 91.2203,-123.196 231.22,-123.196 231.22,-159.196"/>
<text text-anchor="middle" x="161.22" y="-137.496" font-family="Times New Roman,serif" font-size="14.00">3. Render the diagram</text>
</g>
<!-- gv&#45;&gt;F3 -->
<g id="edge5" class="edge"><title>gv&#45;&gt;F3</title>
<path fill="none" stroke="black" d="M161.22,-194.87C161.22,-186.501 161.22,-177.662 161.22,-169.664"/>
<polygon fill="black" stroke="black" points="164.72,-169.403 161.22,-159.404 157.72,-169.404 164.72,-169.403"/>
</g>
<!-- svg -->
<g id="node7" class="node"><title>svg</title>
<ellipse fill="none" stroke="black" cx="161.22" cy="-43.598" rx="39.6872" ry="39.6872"/>
<ellipse fill="none" stroke="black" cx="161.22" cy="-43.598" rx="43.6962" ry="43.6962"/>
<text text-anchor="middle" x="161.22" y="-58.798" font-family="Times New Roman,serif" font-size="11.00">.svg</text>
<text text-anchor="middle" x="161.22" y="-46.798" font-family="Times New Roman,serif" font-size="11.00">.png</text>
<text text-anchor="middle" x="161.22" y="-34.798" font-family="Times New Roman,serif" font-size="11.00">.jpg</text>
<text text-anchor="middle" x="161.22" y="-22.798" font-family="Times New Roman,serif" font-size="11.00">etc</text>
</g>
<!-- F3&#45;&gt;svg -->
<g id="edge6" class="edge"><title>F3&#45;&gt;svg</title>
<path fill="none" stroke="black" d="M161.22,-123.105C161.22,-115.769 161.22,-106.76 161.22,-97.492"/>
<polygon fill="black" stroke="black" points="164.72,-97.401 161.22,-87.401 157.72,-97.401 164.72,-97.401"/>
</g>
</g>
</svg>
