<?xml version="1.0" encoding="UTF-8" standalone="no"?>
<!DOCTYPE svg PUBLIC "-//W3C//DTD SVG 1.1//EN"
 "http://www.w3.org/Graphics/SVG/1.1/DTD/svg11.dtd">
<!-- Generated by graphviz version 2.38.0 (20140413.2041)
 -->
<!-- Title: doc Pages: 1 -->
<svg width="297pt" height="368pt"
 viewBox="0.00 0.00 297.19 368.00" xmlns="http://www.w3.org/2000/svg" xmlns:xlink="http://www.w3.org/1999/xlink">
<g id="graph0" class="graph" transform="scale(1 1) rotate(0) translate(4 364)">
<title>doc</title>
<polygon fill="white" stroke="none" points="-4,4 -4,-364 293.191,-364 293.191,4 -4,4"/>
<!-- E -->
<g id="node1" class="node"><title>E</title>
<g id="a_node1"><a xlink:title="USER_TABLE">
<polygon fill="none" stroke="black" points="289.191,-36 247.191,-36 247.191,-40 235.191,-40 235.191,-0 289.191,-0 289.191,-36"/>
<polyline fill="none" stroke="black" points="235.191,-36 247.191,-36 "/>
<text text-anchor="middle" x="262.191" y="-14.3" font-family="Times New Roman,serif" font-size="14.00">T</text>
</a>
</g>
</g>
<!-- F -->
<g id="node2" class="node"><title>F</title>
<g id="a_node2"><a xlink:title="USER_TABLE">
<polygon fill="none" stroke="black" points="289.191,-90 247.191,-90 247.191,-94 235.191,-94 235.191,-54 289.191,-54 289.191,-90"/>
<polyline fill="none" stroke="black" points="235.191,-90 247.191,-90 "/>
<text text-anchor="middle" x="262.191" y="-68.3" font-family="Times New Roman,serif" font-size="14.00">T</text>
</a>
</g>
</g>
<!-- G -->
<g id="node3" class="node"><title>G</title>
<g id="a_node3"><a xlink:title="USER_TABLE">
<polygon fill="none" stroke="black" points="289.191,-144 247.191,-144 247.191,-148 235.191,-148 235.191,-108 289.191,-108 289.191,-144"/>
<polyline fill="none" stroke="black" points="235.191,-144 247.191,-144 "/>
<text text-anchor="middle" x="262.191" y="-122.3" font-family="Times New Roman,serif" font-size="14.00">T</text>
</a>
</g>
</g>
<!-- H -->
<g id="node4" class="node"><title>H</title>
<g id="a_node4"><a xlink:title="USER_TABLE">
<polygon fill="none" stroke="black" points="289.191,-198 247.191,-198 247.191,-202 235.191,-202 235.191,-162 289.191,-162 289.191,-198"/>
<polyline fill="none" stroke="black" points="235.191,-198 247.191,-198 "/>
<text text-anchor="middle" x="262.191" y="-176.3" font-family="Times New Roman,serif" font-size="14.00">T</text>
</a>
</g>
</g>
<!-- s1 -->
<g id="node5" class="node"><title>s1</title>
<ellipse fill="none" stroke="black" cx="48.0957" cy="-18" rx="27" ry="18"/>
<text text-anchor="middle" x="48.0957" y="-14.3" font-family="Times New Roman,serif" font-size="14.00">SP</text>
</g>
<!-- s1&#45;&gt;E -->
<g id="edge2" class="edge"><title>s1&#45;&gt;E</title>
<path fill="none" stroke="blue" d="M85.2965,-18C127.819,-18 197.325,-18 234.972,-18"/>
<polygon fill="blue" stroke="blue" points="85.1029,-14.5001 75.1028,-18 85.1028,-21.5001 85.1029,-14.5001"/>
<text text-anchor="middle" x="165.691" y="-21.8" font-family="Times New Roman,serif" font-size="14.00">SP reads from T</text>
</g>
<!-- s2 -->
<g id="node6" class="node"><title>s2</title>
<ellipse fill="none" stroke="black" cx="48.0957" cy="-72" rx="27" ry="18"/>
<text text-anchor="middle" x="48.0957" y="-68.3" font-family="Times New Roman,serif" font-size="14.00">SP</text>
</g>
<!-- s2&#45;&gt;F -->
<g id="edge1" class="edge"><title>s2&#45;&gt;F</title>
<path fill="none" stroke="blue" d="M75.1028,-72C112.629,-72 182.126,-72 224.75,-72"/>
<polygon fill="blue" stroke="blue" points="224.972,-75.5001 234.972,-72 224.972,-68.5001 224.972,-75.5001"/>
<text text-anchor="middle" x="165.691" y="-75.8" font-family="Times New Roman,serif" font-size="14.00">SP inserts to T</text>
</g>
<!-- s3 -->
<g id="node7" class="node"><title>s3</title>
<ellipse fill="none" stroke="black" cx="48.0957" cy="-126" rx="27" ry="18"/>
<text text-anchor="middle" x="48.0957" y="-122.3" font-family="Times New Roman,serif" font-size="14.00">SP</text>
</g>
<!-- s3&#45;&gt;G -->
<g id="edge3" class="edge"><title>s3&#45;&gt;G</title>
<path fill="none" stroke="purple" stroke-dasharray="5,2" d="M85.2965,-126C124.165,-126 185.578,-126 224.597,-126"/>
<polygon fill="purple" stroke="purple" points="85.1029,-122.5 75.1028,-126 85.1028,-129.5 85.1029,-122.5"/>
<polygon fill="purple" stroke="purple" points="224.972,-129.5 234.972,-126 224.972,-122.5 224.972,-129.5"/>
<text text-anchor="middle" x="165.691" y="-129.8" font-family="Times New Roman,serif" font-size="14.00">SP updates T</text>
</g>
<!-- s4 -->
<g id="node8" class="node"><title>s4</title>
<ellipse fill="none" stroke="black" cx="48.0957" cy="-180" rx="27" ry="18"/>
<text text-anchor="middle" x="48.0957" y="-176.3" font-family="Times New Roman,serif" font-size="14.00">SP</text>
</g>
<!-- s4&#45;&gt;H -->
<g id="edge4" class="edge"><title>s4&#45;&gt;H</title>
<path fill="none" stroke="red" stroke-dasharray="5,2" d="M75.1028,-180C112.629,-180 182.126,-180 224.75,-180"/>
<polygon fill="red" stroke="red" points="234.972,-183.5 224.972,-180 234.972,-176.5 234.972,-183.5"/>
<text text-anchor="middle" x="165.691" y="-183.8" font-family="Times New Roman,serif" font-size="14.00">SP deletes from T</text>
</g>
<!-- V -->
<g id="node9" class="node"><title>V</title>
<g id="a_node9"><a xlink:title="VIEW">
<polygon fill="none" stroke="black" points="75.0957,-252 21.0957,-252 21.0957,-248 17.0957,-248 17.0957,-244 21.0957,-244 21.0957,-224 17.0957,-224 17.0957,-220 21.0957,-220 21.0957,-216 75.0957,-216 75.0957,-252"/>
<polyline fill="none" stroke="black" points="21.0957,-248 25.0957,-248 25.0957,-244 21.0957,-244 "/>
<polyline fill="none" stroke="black" points="21.0957,-224 25.0957,-224 25.0957,-220 21.0957,-220 "/>
<text text-anchor="middle" x="48.0957" y="-230.3" font-family="Times New Roman,serif" font-size="14.00">View</text>
</a>
</g>
</g>
<!-- T -->
<g id="node10" class="node"><title>T</title>
<g id="a_node10"><a xlink:title="USER_TABLE">
<polygon fill="none" stroke="black" points="75.0957,-306 33.0957,-306 33.0957,-310 21.0957,-310 21.0957,-270 75.0957,-270 75.0957,-306"/>
<polyline fill="none" stroke="black" points="21.0957,-306 33.0957,-306 "/>
<text text-anchor="middle" x="48.0957" y="-284.3" font-family="Times New Roman,serif" font-size="14.00">Table</text>
</a>
</g>
</g>
<!-- SP -->
<g id="node11" class="node"><title>SP</title>
<g id="a_node11"><a xlink:title="Stored Procedure">
<ellipse fill="none" stroke="black" cx="48.0957" cy="-342" rx="48.1917" ry="18"/>
<text text-anchor="middle" x="48.0957" y="-338.3" font-family="Times New Roman,serif" font-size="14.00">Procedure</text>
</a>
</g>
</g>
</g>
</svg>
