<?xml version="1.0" encoding="UTF-8" standalone="no"?>
<!DOCTYPE svg PUBLIC "-//W3C//DTD SVG 1.1//EN"
 "http://www.w3.org/Graphics/SVG/1.1/DTD/svg11.dtd">
<!-- Generated by graphviz version 2.38.0 (20140413.2041)
 -->
<!-- Title: processflow Pages: 1 -->
<svg width="236pt" height="561pt"
 viewBox="0.00 0.00 236.00 561.39" xmlns="http://www.w3.org/2000/svg" xmlns:xlink="http://www.w3.org/1999/xlink">
<g id="graph0" class="graph" transform="scale(1 1) rotate(0) translate(4 557.39)">
<title>processflow</title>
<polygon fill="white" stroke="none" points="-4,4 -4,-557.39 232,-557.39 232,4 -4,4"/>
<!-- Start -->
<g id="node1" class="node"><title>Start</title>
<ellipse fill="none" stroke="black" cx="114" cy="-535.39" rx="27.8951" ry="18"/>
<text text-anchor="middle" x="114" y="-531.69" font-family="Times New Roman,serif" font-size="14.00">Start</text>
</g>
<!-- F1 -->
<g id="node2" class="node"><title>F1</title>
<polygon fill="none" stroke="black" stroke-width="2" points="228,-481.39 0,-481.39 0,-445.39 228,-445.39 228,-481.39"/>
<g id="a_node2_0"><a xlink:href="https://github.com/MichaelSScott/GraphDoc/wiki/Produce-a-Dependency-Table" xlink:title="Open Hierarchical view">
<text text-anchor="start" x="10" y="-460.59" font-family="Times New Roman,serif" font-weight="bold" font-size="16.00"> </text>
<text text-anchor="start" x="14" y="-460.59" font-family="Times New Roman,serif" font-weight="bold" font-size="16.00" fill="#0000ff">1. Produce a dependency table</text>
</a>
</g>
</g>
<!-- Start&#45;&gt;F1 -->
<g id="edge1" class="edge"><title>Start&#45;&gt;F1</title>
<path fill="none" stroke="black" d="M114,-517.086C114,-509.372 114,-500.102 114,-491.502"/>
<polygon fill="black" stroke="black" points="117.5,-491.494 114,-481.494 110.5,-491.494 117.5,-491.494"/>
</g>
<!-- deptbl -->
<g id="node3" class="node"><title>deptbl</title>
<polygon fill="none" stroke="black" points="141,-409.39 99,-409.39 99,-413.39 87,-413.39 87,-373.39 141,-373.39 141,-409.39"/>
<polyline fill="none" stroke="black" points="87,-409.39 99,-409.39 "/>
<text text-anchor="middle" x="114" y="-387.69" font-family="Times New Roman,serif" font-size="14.00">deptbl</text>
</g>
<!-- F1&#45;&gt;deptbl -->
<g id="edge2" class="edge"><title>F1&#45;&gt;deptbl</title>
<path fill="none" stroke="black" d="M114,-445.086C114,-437.372 114,-428.102 114,-419.502"/>
<polygon fill="black" stroke="black" points="117.5,-419.494 114,-409.494 110.5,-419.494 117.5,-419.494"/>
</g>
<!-- F2 -->
<g id="node4" class="node"><title>F2</title>
<polygon fill="none" stroke="black" stroke-width="2" points="214.5,-337.39 13.5,-337.39 13.5,-301.39 214.5,-301.39 214.5,-337.39"/>
<g id="a_node4_1"><a xlink:href="https://github.com/MichaelSScott/GraphDoc/wiki/Produce-a-GraphViz-file" xlink:title="Open Hierarchical view">
<text text-anchor="start" x="24" y="-316.59" font-family="Times New Roman,serif" font-weight="bold" font-size="16.00"> </text>
<text text-anchor="start" x="28" y="-316.59" font-family="Times New Roman,serif" font-weight="bold" font-size="16.00" fill="#0000ff">2. Produce a GraphViz file</text>
</a>
</g>
</g>
<!-- deptbl&#45;&gt;F2 -->
<g id="edge3" class="edge"><title>deptbl&#45;&gt;F2</title>
<path fill="none" stroke="black" d="M114,-373.086C114,-365.372 114,-356.102 114,-347.502"/>
<polygon fill="black" stroke="black" points="117.5,-347.494 114,-337.494 110.5,-347.494 117.5,-347.494"/>
</g>
<!-- gv -->
<g id="node5" class="node"><title>gv</title>
<ellipse fill="none" stroke="black" cx="114" cy="-230.293" rx="35.194" ry="35.194"/>
<text text-anchor="middle" x="114" y="-226.593" font-family="Times New Roman,serif" font-size="14.00">text.gv</text>
</g>
<!-- F2&#45;&gt;gv -->
<g id="edge4" class="edge"><title>F2&#45;&gt;gv</title>
<path fill="none" stroke="black" d="M114,-301.182C114,-293.762 114,-284.708 114,-275.609"/>
<polygon fill="black" stroke="black" points="117.5,-275.401 114,-265.401 110.5,-275.401 117.5,-275.401"/>
</g>
<!-- F3 -->
<g id="node6" class="node"><title>F3</title>
<polygon fill="none" stroke="black" stroke-width="2" points="200.5,-159.196 27.5,-159.196 27.5,-123.196 200.5,-123.196 200.5,-159.196"/>
<g id="a_node6_2"><a xlink:href="https://github.com/MichaelSScott/GraphDoc/wiki/Render-the-Diagram" xlink:title="Open Hierarchical view">
<text text-anchor="start" x="38" y="-138.396" font-family="Times New Roman,serif" font-weight="bold" font-size="16.00"> </text>
<text text-anchor="start" x="42" y="-138.396" font-family="Times New Roman,serif" font-weight="bold" font-size="16.00" fill="#0000ff">3. Render the diagram</text>
</a>
</g>
</g>
<!-- gv&#45;&gt;F3 -->
<g id="edge5" class="edge"><title>gv&#45;&gt;F3</title>
<path fill="none" stroke="black" d="M114,-194.87C114,-186.501 114,-177.662 114,-169.664"/>
<polygon fill="black" stroke="black" points="117.5,-169.403 114,-159.404 110.5,-169.404 117.5,-169.403"/>
</g>
<!-- svg -->
<g id="node7" class="node"><title>svg</title>
<ellipse fill="none" stroke="black" cx="114" cy="-43.598" rx="39.6872" ry="39.6872"/>
<ellipse fill="none" stroke="black" cx="114" cy="-43.598" rx="43.6962" ry="43.6962"/>
<text text-anchor="middle" x="114" y="-58.798" font-family="Times New Roman,serif" font-size="11.00">.svg</text>
<text text-anchor="middle" x="114" y="-46.798" font-family="Times New Roman,serif" font-size="11.00">.png</text>
<text text-anchor="middle" x="114" y="-34.798" font-family="Times New Roman,serif" font-size="11.00">.jpg</text>
<text text-anchor="middle" x="114" y="-22.798" font-family="Times New Roman,serif" font-size="11.00">etc</text>
</g>
<!-- F3&#45;&gt;svg -->
<g id="edge6" class="edge"><title>F3&#45;&gt;svg</title>
<path fill="none" stroke="black" d="M114,-123.105C114,-115.769 114,-106.76 114,-97.492"/>
<polygon fill="black" stroke="black" points="117.5,-97.401 114,-87.401 110.5,-97.401 117.5,-97.401"/>
</g>
</g>
</svg>
